<?xml version="1.0" encoding="utf-8"?>
<!-- Generator: Adobe Illustrator 28.3.0, SVG Export Plug-In . SVG Version: 6.00 Build 0)  -->
<svg version="1.1" xmlns="http://www.w3.org/2000/svg" xmlns:xlink="http://www.w3.org/1999/xlink" x="0px" y="0px"
	 viewBox="0 0 1500 1500" style="enable-background:new 0 0 1500 1500;" xml:space="preserve">
<style type="text/css">
	.st0{fill:#FF6487;}
	.st1{fill:#14133A;}
	.st2{fill:none;stroke:#FFFFFF;stroke-width:16;stroke-miterlimit:10;}
</style>
<g id="pillow">
</g>
<g id="pouffe">
</g>
<g id="bed_headboard">
</g>
<g id="office_chair">
</g>
<g id="chairs">
</g>
<g id="armchair">
</g>
<g id="double_mattress">
</g>
<g id="single-person_mattress">
</g>
<g id="the_corner_sofa__x28_7_people__x2B_">
</g>
<g id="the_corner_sofa__x28_5_people__x2B__x29_">
	<path class="st0" d="M1460.8,1026.22c-87.63,554.36-765.4,527.23-1152.35,360.11C36.68,1268.96-57.97,783.17,70.88,537.31
		C311.5,78.19,428.75-66.24,1111.13,42.39C1488.79,102.51,1524.14,625.5,1460.8,1026.22z"/>
	<g>
		<g>
			<path class="st1" d="M672.76,1168.54c-114.41,1.01-229.97-5.52-344.39-6.75c0,0-13.27-0.16-13.27-0.16
				c-4.2-0.05-8.49-1.2-12.08-3.43c-7.15-4.14-11.63-12.64-11.35-20.78c0.07-3.5,0.1-16.01,0.16-19.87
				c1.61-202.88-3.3-409.6-7.09-612.61c-1.05-15.95,10.45-30.45,26.49-32.49c1.83-0.24,3.85-0.3,5.64-0.3c0,0,26.49-0.21,26.49-0.21
				c327.37-1.14,669.25,7.54,996.74,10.59c0,0,1.66,0.01,1.66,0.01s0.83,0.01,0.83,0.01c9.48-0.25,18.56,6.95,20.17,16.39
				c0.34,1.54,0.35,3.25,0.35,4.79c0,0-0.11,13.25-0.11,13.25c-1.01,101.7-0.88,205.02-1.26,306.8c-0.6,9.41-9.01,17.33-18.45,17.27
				c-3.86,0.01-15.85-0.04-19.96-0.04c-207.19-0.95-417.13-1.04-624,5.38c1.31,66.45,2.98,138.28,3.49,205.08
				c0.27,26.16,0.35,59.95,0.37,86.1C703.6,1154.27,689.55,1168.66,672.76,1168.54L672.76,1168.54z M672.76,1132.07
				c-3.05-0.11-5.85,2.74-5.8,5.78c0.01,0.32,0.01-0.35,0.02-0.51c0.01-3.56,0.44-28.83,0.49-33.11
				c1.29-82.83,4.16-168.77,7.08-251.63c0.01-1.18,0.16-3.84,0.17-4.97c-0.21-13.76,11.47-25.33,25.23-24.68
				c206.7,6.37,416.44,6.3,623.38,5.35c0,0,13.25-0.03,13.25-0.03s6.54-0.03,6.54-0.03c2.67-0.02,5.12-2.04,5.64-4.65
				c0.09-0.67,0.16-1.22,0.13-1.94c0,0-0.03-13.25-0.03-13.25c-0.22-101.1-0.22-203.64-1.27-304.65c0,0-0.01-0.83-0.01-0.83
				c-0.01-0.22-0.03-0.24-0.03-0.37c0.01-0.21-0.07-0.4-0.08-0.6c-0.26-1.17-1.01-2.23-2.05-2.85c-0.68-0.41-1.44-0.63-2.24-0.63
				c-0.04-0.01-0.25-0.02-0.58-0.01c0,0-0.83,0.01-0.83,0.01s-1.66,0.01-1.66,0.01s-3.31,0.03-3.31,0.03s-13.25,0.14-13.25,0.14
				c-321.89,3.18-658.44,11.53-980.18,10.42c0,0-26.49-0.21-26.49-0.21s-1.66-0.02-1.66-0.02c-0.06,0.01,0.21,0.01,0.29,0
				c0.66-0.09,1.35-0.2,1.96-0.52c2.09-0.91,3.51-3.05,3.51-5.33c-0.01-0.28-0.02-0.05-0.02,0.3c0,0-0.02,1.66-0.02,1.66
				s-0.05,3.31-0.05,3.31c-3.84,206.41-8.9,416.26-6.93,622.55c0,0,0.05,6.62,0.05,6.62c-0.01,0.77,0.04,0.57,0.03,0.67
				c0.03,0.15,0.09,0.26,0.15,0.39c0.24,0.32,0.56,0.5,0.96,0.48c0,0,13.22-0.15,13.22-0.15
				C442.81,1137.57,558.35,1131.08,672.76,1132.07L672.76,1132.07z"/>
		</g>
		<g>
			<path class="st1" d="M1361.68,514.18c12.35,0.9,24.7,1.53,37.05,2.06c0,0,1.68,0.05,1.68,0.05c0.2-0.02,0.4-0.03,0.61-0.04
				c3.09-0.36,5.68-3.2,5.81-6.36c0.23-5.9,0.31-11.18,0.49-16.77c0.73-27.76,0.99-55.59,0.94-83.35c0,0,0-1.16,0-1.16
				c0.03-1-0.04-1.72-0.22-2.64c-0.65-3.15-3.32-5.79-6.45-6.42c-377.87,1.23-778.91,11.06-1156.83,11.5c0,0-37.05,0.11-37.05,0.11
				s-2.32,0.01-2.32,0.01s-1.05,0.01-1.05,0.01c0.1,0.02,0.2,0.01,0.3-0.02c1.29-0.1,2.41-0.97,2.86-2.21
				c0.1-0.35,0.21-0.72,0.19-1.09c-0.01-0.17,0,0.26-0.01,0.39c0.38,251.24-0.56,503.59-3.82,754.82c0,0-0.24,18.52-0.24,18.52
				s-0.12,9.26-0.12,9.26s-0.02,1.57-0.02,1.57c0.02,0.42,0.43,0.83,0.81,0.87c0.06,0-0.07,0.02,0.21,0.02
				c15.85,0.12,82.21,1.41,99.56,1.65c0,0,18.25,0.33,18.25,0.33c1.68,0.12,3.26-1.27,3.4-2.98c0,0,0.82-36.73,0.82-36.73s16,0,16,0
				c0.24,9.08,0.65,27.93,0.78,37.36c-0.01,10.85-9.55,20.53-20.46,20.71c0,0-9.53,0.21-9.53,0.21
				c-19.18,0.22-83.03,1.53-101.88,1.71c0,0-4.63,0.07-4.63,0.07s-2.32,0.03-2.32,0.03c-10.41,0.23-20.37-7.1-23.05-17.22
				c-0.66-2.04-0.83-4.32-0.91-6.45c0,0-0.02-1.16-0.02-1.16s-0.12-9.26-0.12-9.26c-3.43-255.86-4.45-512.83-4.07-768.71
				c0,0,0-4.63,0-4.63c0-0.26-0.01-0.22,0.01-0.77c0.01-13.89,11.32-26.33,25.19-27.5c1.79-0.21,4.34-0.11,6.19-0.13
				c349.19,0.18,724.93,8.16,1074.34,10.99c24.85,0.46,90.94,0.48,115.77,0.82c0,0,1.16,0.01,1.16,0.01
				c1.28,0.01,2.99,0.09,4.3,0.43c7.43,1.63,12.95,8.92,12.48,16.52c0,0,0,1.16,0,1.16s-0.01,9.26-0.01,9.26
				c0.04,29.29,0.42,58.7,1.35,87.99c0,0,0.07,2.32,0.07,2.32s0.02,0.6,0.02,0.6c0.19,7.59-4.9,14.85-12.18,17.21
				c0,0-1.64,0.47-1.64,0.47c-1.11,0.24-2.24,0.4-3.38,0.46c-12.77,0.56-25.53,1.18-38.3,2.12
				C1361.68,530.18,1361.68,514.18,1361.68,514.18L1361.68,514.18z"/>
		</g>
		<g>
			<polygon class="st1" points="738.23,835.72 738.23,487.7 754.23,487.7 754.23,835.72 738.23,835.72 			"/>
		</g>
		<g>
			<path class="st1" d="M1047.54,834.66c-4.49-98.41-5.49-198.57-5.66-297.13c0.05-14.38,1.07-28.54,5.66-42.45c0,0,16,0,16,0
				c4.59,13.9,5.62,28.07,5.66,42.45c-0.04,69.75-0.77,142.56-2.62,212.23c-0.78,28.3-1.63,56.6-3.04,84.89H1047.54L1047.54,834.66z
				"/>
		</g>
	</g>
</g>
<g id="three-seater_sofa">
</g>
<g id="two-seater_sofa">
</g>
</svg>
