<svg width="313" height="393" viewBox="0 0 313 393" fill="none" xmlns="http://www.w3.org/2000/svg">
<path d="M208.597 250.416C198.793 250.416 190.929 250.249 183.086 250.457C171.675 250.75 160.265 251.355 148.876 252.003C142.242 252.379 135.588 252.755 128.934 253.068C118.087 253.548 107.24 254.405 96.3928 254.091C86.5053 253.799 76.6178 254.238 66.7511 253.716C56.1961 253.152 45.5994 253.423 35.1069 251.731C20.4008 249.35 7.55126 237.55 3.67135 223.139C1.43936 214.869 1.68967 206.64 2.48234 198.286C3.17071 191.122 4.44316 184.063 7.0089 177.359C10.5968 168.002 15.4571 159.439 23.6758 153.278C29.5791 148.85 36.3377 146.406 43.5343 145.132C47.2682 144.464 51.0229 144.214 54.8402 144.193C65.3535 144.13 75.8668 144.088 86.3593 143.733C94.5363 143.462 102.713 142.71 110.89 142.188C114.186 141.979 117.461 141.937 120.757 141.791C136.527 141.081 152.318 140.872 168.067 141.415C179.06 141.791 190.074 142.376 201.067 142.021C218.506 141.457 235.944 140.684 253.404 140.705C259.85 140.705 266.316 139.869 272.699 140.851C285.236 142.793 295.29 148.683 301.965 159.898C308.14 170.278 310.977 181.431 310.768 193.461C310.497 209.376 304.906 222.93 292.87 233.519C287.155 238.553 280.521 241.978 273.179 244.046C261.31 247.366 249.19 249.079 236.946 250.061C226.829 250.854 216.732 250.102 208.597 250.416Z" fill="#00F4C5"/>
<path d="M135.088 127.604C126.973 127.98 117.566 127.499 108.2 127.082C96.9353 126.58 85.6293 126.685 74.4276 125.453C58.3865 123.698 42.6166 120.67 28.1399 113.13C12.1822 104.818 2.29474 91.6809 0.354791 73.6986C-1.20969 59.1833 2.29474 45.754 13.1835 35.1025C18.5862 29.8185 25.3864 27.2287 32.4579 25.2237C49.2917 20.4409 66.5635 17.8303 83.8354 15.2614C92.7425 13.9456 101.816 13.5696 110.828 12.964C121.383 12.2956 131.938 11.8779 142.493 11.2514C149.356 10.8337 156.219 10.7501 163.061 10.3533C171.342 9.87293 179.602 9.97736 187.863 10.0818C201.588 10.2698 215.272 11.2514 228.936 12.7969C239.991 14.05 250.88 15.9297 261.331 19.7726C270.864 23.2605 280.584 26.3724 289.408 31.5937C299.567 37.5878 307.618 45.3781 311.144 57.0321C313.689 65.428 313.793 73.6986 310.184 81.9066C307.326 88.4228 304.114 94.6675 299.421 100.119C294.685 105.611 288.949 109.684 282.441 112.608C267.568 119.312 251.819 122.403 235.652 123.907C224.263 124.972 212.853 125.202 201.442 125.557C191.284 125.87 181.146 126.351 171.008 126.81C159.494 127.374 147.937 127.729 135.088 127.604Z" fill="#00F4C5"/>
<path d="M128.84 41.96C126.52 41 123.96 42.04 123 44.28L107.4 81.32L97.08 56.76C96.28 55 94.6 54.04 92.92 54.04C91.16 54.04 89.48 55 88.76 56.76L78.44 81.32L62.76 44.28C61.88 42.04 59.24 41 57.08 41.96C54.76 42.84 53.8 45.48 54.68 47.64L74.36 94.28C74.52 94.52 74.6 94.84 74.76 95V95.08C74.92 95.24 75 95.4 75.16 95.56C75.24 95.72 75.24 95.72 75.32 95.8C75.56 95.88 75.64 96.04 75.88 96.2C75.88 96.2 75.88 96.2 75.96 96.2C76.12 96.36 76.44 96.6 76.68 96.68C76.76 96.68 76.76 96.68 76.84 96.76C77 96.76 77.16 96.84 77.4 96.92C77.48 96.92 77.56 96.92 77.64 96.92C77.88 97 78.2 97 78.44 97C78.68 97 78.92 97 79.16 96.92C79.24 96.92 79.32 96.92 79.4 96.92C79.56 96.84 79.72 96.76 80.04 96.76C80.04 96.68 80.12 96.68 80.12 96.68C80.12 96.68 80.12 96.68 80.2 96.68C80.36 96.6 80.6 96.36 80.84 96.2C80.84 96.2 80.84 96.2 81 96.2C81.16 96.04 81.32 95.88 81.48 95.8C81.48 95.72 81.56 95.72 81.56 95.56C81.72 95.4 81.88 95.24 82.04 95.08C82.04 95.08 82.04 95 82.12 95C82.2 94.84 82.36 94.52 82.44 94.28L92.92 69.48L103.4 94.28C103.48 94.52 103.56 94.84 103.72 95C103.72 95 103.72 95.08 103.88 95.08C103.96 95.24 104.12 95.4 104.2 95.56C104.28 95.72 104.28 95.72 104.36 95.8C104.52 95.88 104.68 96.04 104.92 96.2C104.92 96.2 104.92 96.2 105 96.2C105.16 96.36 105.4 96.6 105.72 96.68C105.8 96.68 105.8 96.68 105.88 96.76C106.04 96.76 106.2 96.84 106.44 96.92C106.44 96.92 106.52 96.92 106.68 96.92C106.92 97 107.16 97 107.4 97C107.72 97 107.96 97 108.2 96.92C108.2 96.92 108.28 96.92 108.36 96.92C108.6 96.84 108.84 96.76 109 96.76C109 96.68 109.08 96.68 109.08 96.68H109.16C109.48 96.6 109.64 96.36 109.88 96.2H109.96C110.12 96.04 110.36 95.88 110.52 95.8C110.52 95.72 110.6 95.72 110.6 95.56C110.76 95.4 110.92 95.24 111 95.08L111.08 95C111.24 94.84 111.4 94.52 111.48 94.28L131.08 47.64C132.04 45.48 131 42.84 128.84 41.96ZM148.245 97C150.725 97 152.725 95.08 152.725 92.6V73.4H173.445V92.6C173.445 95.08 175.365 97 177.845 97C180.325 97 182.325 95.08 182.325 92.6V45.4C182.325 42.92 180.325 41 177.845 41C175.365 41 173.445 42.92 173.445 45.4V64.6H152.725V45.4C152.725 42.92 150.725 41 148.245 41C145.765 41 143.845 42.92 143.845 45.4V92.6C143.845 95.08 145.765 97 148.245 97ZM221.582 39.4C213.902 39.4 206.862 42.68 201.982 47.96C197.022 53.24 194.062 60.28 194.062 68.2C194.062 76.12 197.022 83.24 201.982 88.44C206.862 93.64 213.902 97 221.582 97C228.942 97 235.982 93.64 240.702 88.44C245.662 83.24 248.782 76.12 248.782 68.2C248.782 60.28 245.662 53.24 240.702 47.96C235.982 42.68 228.942 39.4 221.582 39.4ZM234.222 82.12C230.862 85.72 226.382 87.88 221.582 87.88C216.462 87.88 211.982 85.72 208.622 82.12C205.262 78.68 203.182 73.64 203.182 68.2C203.182 62.76 205.262 57.72 208.622 54.2C211.982 50.6 216.462 48.52 221.582 48.52C226.382 48.52 230.862 50.6 234.222 54.2C237.502 57.72 239.662 62.76 239.662 68.2C239.662 73.64 237.502 78.68 234.222 82.12Z" fill="white"/>
<path d="M120.8 223.2C121.44 224.96 123.12 226 124.88 226C125.44 226 126 225.92 126.4 225.76C128.72 224.88 129.84 222.32 129.04 220L111.36 172.88C110.64 171.12 108.96 170 107.12 170.08C105.36 170 103.6 171.12 102.88 172.88L85.2 220C84.4 222.32 85.52 224.88 87.84 225.76C88.32 225.92 88.8 226 89.36 226C91.12 226 92.8 224.96 93.52 223.2L97.44 212.8H116.88L120.8 223.2ZM100.64 204L107.12 186.8L113.6 204H100.64ZM172.679 216.64C172.519 215.84 172.279 214.32 172.359 211.92C172.359 208.56 171.319 205.6 169.719 203.28C168.919 202.08 167.959 201.12 166.919 200.32C170.759 197.12 173.159 192.48 173.159 187.2C173.159 177.68 165.559 170 156.039 170H141.799C141.719 170 141.719 170 141.719 170C139.239 170 137.319 171.92 137.319 174.4V221.6C137.319 224 139.239 226 141.719 226C144.199 226 146.199 224 146.199 221.6V204.24H155.639C156.359 204.4 158.439 205.04 160.119 206.16C161.079 206.8 162.039 207.6 162.519 208.48C163.079 209.36 163.399 210.4 163.479 211.92C163.479 216.32 164.039 219.2 165.159 221.52C165.799 222.64 166.679 223.68 167.719 224.32C168.839 225.04 170.039 225.2 170.839 225.2C170.919 225.2 170.919 225.2 170.919 225.2C171.719 225.2 172.359 225.04 172.679 224.96C174.999 224.16 176.279 221.68 175.479 219.36C174.999 218 173.959 217.04 172.679 216.64ZM156.039 195.36H146.199V178.88H156.039C160.599 178.88 164.279 182.56 164.279 187.2C164.279 191.68 160.599 195.36 156.039 195.36ZM191.239 226L191.319 225.92C191.319 225.92 191.319 226 191.479 226H217.399C219.719 226 221.799 224 221.799 221.6C221.799 219.12 219.719 217.12 217.399 217.12H195.719V202.4H214.359C216.759 202.4 218.759 200.4 218.759 197.92C218.759 195.6 216.759 193.52 214.359 193.52H195.719V178.88H217.399C219.719 178.88 221.799 176.88 221.799 174.4C221.799 171.92 219.719 170 217.399 170H191.479C191.319 170 191.319 170 191.319 170H191.239C188.759 170 186.839 171.92 186.839 174.4V221.6C186.839 224 188.759 226 191.239 226Z" fill="white"/>
<path d="M187.612 382.52C178.371 382.812 166.815 381.162 155.175 380.87C147.457 380.682 139.739 380.974 132.021 380.703C123.406 380.41 114.77 380.41 106.155 380.327C96.5805 380.243 87.1728 381.747 77.6816 382.666C71.5906 383.251 65.4995 382.937 59.4085 382.728C54.1518 382.54 48.9786 381.58 43.7637 380.807C36.1291 379.658 29.1202 377.027 23.0083 372.202C19.0241 369.049 16.6669 364.725 14.9773 360.068C11.306 350.064 8.42736 339.851 8.55252 329.095C8.71939 313.097 14.3932 299.333 26.1581 288.348C30.7055 284.108 36.4002 281.706 42.241 279.889C51.2732 277.049 60.4932 274.73 69.7966 273.059C77.9111 271.597 86.1924 270.908 94.3902 269.989C100.648 269.279 106.927 268.694 113.206 268.089C115.855 267.838 118.504 267.587 121.174 267.483C131.458 267.044 141.742 266.188 152.067 266.606C160.39 266.94 168.713 267.337 177.036 267.817C181.751 268.089 186.423 267.462 191.117 267.316C196.436 267.149 201.734 266.606 207.074 266.606C213.666 266.606 220.258 266.627 226.849 266.606C234.025 266.564 241.097 267.546 248.21 268.318C256.303 269.196 264.313 270.449 272.303 271.932C278.435 273.059 283.776 275.67 288.552 279.429C292.891 282.855 297.001 286.593 300.234 291.188C308.181 302.55 311.748 314.955 310.518 328.928C309.725 338.013 308.181 346.806 303.759 354.784C298.169 364.851 290.451 372.578 278.665 374.876C268.84 376.797 259.015 378.865 249.023 379.867C242.765 380.494 236.466 380.953 230.166 381.183C216.774 381.642 203.424 382.478 187.612 382.52Z" fill="#00F4C5"/>
<path d="M145.84 296.96C143.52 296 140.96 297.04 140 299.28L124.4 336.32L114.08 311.76C113.28 310 111.6 309.04 109.92 309.04C108.16 309.04 106.48 310 105.76 311.76L95.44 336.32L79.76 299.28C78.88 297.04 76.24 296 74.08 296.96C71.76 297.84 70.8 300.48 71.68 302.64L91.36 349.28C91.52 349.52 91.6 349.84 91.76 350V350.08C91.92 350.24 92 350.4 92.16 350.56C92.24 350.72 92.24 350.72 92.32 350.8C92.56 350.88 92.64 351.04 92.88 351.2C92.88 351.2 92.88 351.2 92.96 351.2C93.12 351.36 93.44 351.6 93.68 351.68C93.76 351.68 93.76 351.68 93.84 351.76C94 351.76 94.16 351.84 94.4 351.92C94.48 351.92 94.56 351.92 94.64 351.92C94.88 352 95.2 352 95.44 352C95.68 352 95.92 352 96.16 351.92C96.24 351.92 96.32 351.92 96.4 351.92C96.56 351.84 96.72 351.76 97.04 351.76C97.04 351.68 97.12 351.68 97.12 351.68C97.12 351.68 97.12 351.68 97.2 351.68C97.36 351.6 97.6 351.36 97.84 351.2C97.84 351.2 97.84 351.2 98 351.2C98.16 351.04 98.32 350.88 98.48 350.8C98.48 350.72 98.56 350.72 98.56 350.56C98.72 350.4 98.88 350.24 99.04 350.08C99.04 350.08 99.04 350 99.12 350C99.2 349.84 99.36 349.52 99.44 349.28L109.92 324.48L120.4 349.28C120.48 349.52 120.56 349.84 120.72 350C120.72 350 120.72 350.08 120.88 350.08C120.96 350.24 121.12 350.4 121.2 350.56C121.28 350.72 121.28 350.72 121.36 350.8C121.52 350.88 121.68 351.04 121.92 351.2C121.92 351.2 121.92 351.2 122 351.2C122.16 351.36 122.4 351.6 122.72 351.68C122.8 351.68 122.8 351.68 122.88 351.76C123.04 351.76 123.2 351.84 123.44 351.92C123.44 351.92 123.52 351.92 123.68 351.92C123.92 352 124.16 352 124.4 352C124.72 352 124.96 352 125.2 351.92C125.2 351.92 125.28 351.92 125.36 351.92C125.6 351.84 125.84 351.76 126 351.76C126 351.68 126.08 351.68 126.08 351.68H126.16C126.48 351.6 126.64 351.36 126.88 351.2H126.96C127.12 351.04 127.36 350.88 127.52 350.8C127.52 350.72 127.6 350.72 127.6 350.56C127.76 350.4 127.92 350.24 128 350.08L128.08 350C128.24 349.84 128.4 349.52 128.48 349.28L148.08 302.64C149.04 300.48 148 297.84 145.84 296.96ZM163.683 352L163.763 351.92C163.763 351.92 163.763 352 163.923 352H189.843C192.163 352 194.243 350 194.243 347.6C194.243 345.12 192.163 343.12 189.843 343.12H168.163V328.4H186.803C189.203 328.4 191.203 326.4 191.203 323.92C191.203 321.6 189.203 319.52 186.803 319.52H168.163V304.88H189.843C192.163 304.88 194.243 302.88 194.243 300.4C194.243 297.92 192.163 296 189.843 296H163.923C163.763 296 163.763 296 163.763 296H163.683C161.203 296 159.283 297.92 159.283 300.4V347.6C159.283 350 161.203 352 163.683 352ZM215.344 342.72C213.264 342.72 211.424 344.48 211.424 346.64V348.08C211.424 350.32 213.264 352 215.344 352C217.584 352 219.264 350.32 219.264 348.08V346.64C219.264 344.48 217.584 342.72 215.344 342.72ZM232.224 312.8C232.224 303.52 224.624 296 215.344 296C209.184 296 203.744 299.36 200.864 304.32C199.744 306.24 200.384 308.56 202.224 309.68C204.144 310.8 206.544 310.16 207.664 308.24C209.184 305.6 212.064 303.84 215.344 303.84C220.384 303.84 224.464 307.76 224.464 312.8C224.464 317.76 220.384 321.76 215.344 321.76C213.264 321.76 211.424 323.6 211.424 325.68C211.424 325.76 211.424 325.76 211.504 325.84C211.504 325.92 211.424 325.92 211.424 326V334.32C211.424 336.56 213.264 338.24 215.344 338.24C217.584 338.24 219.264 336.56 219.264 334.32V329.12C226.704 327.36 232.224 320.72 232.224 312.8Z" fill="white"/>
</svg>
